<svg version="1" xmlns="http://www.w3.org/2000/svg" width="1365.333" height="1365.333" viewBox="0 0 1024.000000 1024.000000"><path d="M235.8.5c-.2.1-4.1.6-8.8.9-4.7.4-9.4.9-10.5 1.1-1.1.3-3.6.7-5.5 1-1.9.2-4.7.7-6.2 1-1.6.3-3.8.7-5 .9-1.3.2-4.3.9-6.8 1.6-2.5.7-5.6 1.4-7 1.6-4.6.9-31.9 10.4-38 13.3-3.3 1.6-6 2.7-6 2.4 0-.2-1.2.4-2.7 1.4-1.6 1-4.5 2.6-6.6 3.6-18.8 8.5-51.1 33.9-68.2 53.7-17 19.6-33.7 49.2-42.8 76.1-2.3 6.7-7.3 25.1-8.3 30.4-1.5 8.4-3.6 24.5-4.1 32-1 12.6-.9 570.9 0 582.5.8 9.8 1.1 12.5 2.7 22 .5 3 1.2 7.1 1.5 9 7.5 45.8 35.2 95 72 127.6 23 20.4 54 38.4 80.5 46.9 3 1 6.2 2.1 7.2 2.6 2.6 1.3 29.6 7.7 37.3 8.9 3.9.6 8.6 1.3 10.5 1.6 6.4 1 47.4 1.2 54.5.3 12.3-1.6 14.8-2 22.5-3.5 67.9-13.6 123.2-50.5 157.5-104.9 15-23.8 28.2-58 31.9-82.5.3-1.9.7-4.4 1-5.5.2-1.1.7-4.7 1.1-8 .4-3.3 1-7.1 1.3-8.5.9-4.2 1.1-582.9.2-591-.5-4.1-1.2-9.8-1.5-12.5-.5-4.3-1.4-9.2-4.1-23.5-1-5.1-3.2-13-7.1-24.9-4.2-13-13.8-33.2-22.7-47.6-17.6-28.5-44-54.8-73.3-72.8-9.1-5.6-25.1-14-32.8-17.2-17.7-7.4-42.7-14.4-60.1-17-2.2-.4-5.1-.8-6.7-1.1-6.8-1.1-14.4-1.6-29.9-1.9-9.2-.1-16.8-.1-17 0zm28.2 145c14.4 1.8 24 4.8 37 11.8 25.2 13.5 40.5 35.5 44.6 64.2.3 2.2.9 5.8 1.3 8.1 1 5.1.6 564.5-.3 569.9-1.5 8.6-4.9 21.2-7.4 26.9-9.4 22.3-28.6 39.2-54.2 47.9-7.4 2.5-9.2 2.9-20 4.6-7 1.2-30.3.7-35.5-.7-2.2-.6-5.1-1.3-6.5-1.6-3.6-.6-11.6-3.5-18-6.3-9.9-4.5-19.3-11.3-28-20.2-13-13.3-19.7-28.3-23.1-52.1-1-6.5-1.3-71.9-1.3-284.5 0-151.8.3-278.7.7-282 2-17.3 4.6-26.8 10.9-39.4 4.2-8.5 6.7-11.9 12.8-18.1 11-11.1 22.6-18.4 37.5-23.6 9.7-3.3 13.8-4.2 23.5-5 4.1-.4 7.6-.7 7.8-.9.4-.3 13.2.3 18.2 1zM548.8 10c-.2.8-.3 227.4-.3 503.5l.1 502 72.2.1H693V567.4h178V1015.7h143.8l.4-2.1c.3-1.8.2-1001.2-.1-1004.1-.1-.7-24-.9-69.8-.8-38.4.1-70.8.2-72 .2L871 9v431h-9.2c-14.5.1-145 .1-157.5 0H693V224.5c0-171.7-.3-215.5-1.2-215.6-.7 0-33.1-.1-72-.2-62.1-.2-70.7 0-71 1.3z"/></svg>