<svg xmlns="http://www.w3.org/2000/svg" style="isolation:isolate" viewBox="0 0 16 16" width="16" height="16"><path d="M4.16 1c-.003.002-.057.01-.123.013l-.146.015c-.01.005-.05.01-.07.014l-.08.014-.07.012c-.013.003-.06.012-.09.022-.034.01-.08.02-.097.022-.064.012-.444.142-.53.182-.045.022-.083.037-.083.033 0-.003-.02.005-.04.02l-.093.048c-.262.116-.71.464-.95.735-.235.268-.467.673-.594 1.04-.032.093-.1.345-.115.417-.02.115-.05.336-.056.438-.01.173-.01 7.813 0 7.972.01.134.02.17.04.3l.02.124c.106.63.49 1.3 1.003 1.75.32.28.75.53 1.12.64l.1.04c.037.02.41.11.52.12l.146.02c.09.02.66.02.758.01.17-.02.204-.022.31-.05.945-.18 1.714-.69 2.19-1.43.21-.325.393-.793.444-1.13l.01-.074.018-.11c.005-.045.013-.097.017-.116.015-.06.018-7.98.005-8.09l-.02-.17c-.01-.06-.02-.128-.06-.324-.015-.07-.045-.176-.1-.34-.06-.18-.192-.454-.316-.65-.244-.39-.61-.75-1.02-.997-.125-.08-.347-.19-.454-.237-.244-.1-.59-.196-.833-.232l-.1-.013c-.1-.02-.206-.027-.42-.03h-.24zm.392 1.985c.2.025.333.066.514.162.35.185.563.486.62.878l.018.11c.014.07.01 7.726-.004 7.8-.02.118-.068.29-.103.368-.13.305-.397.537-.753.656-.103.03-.128.03-.278.06-.098.01-.422.01-.494-.01l-.09-.02c-.05-.01-.162-.05-.25-.09-.138-.06-.27-.16-.39-.28-.18-.18-.274-.39-.32-.72C3.006 11.82 3 10.93 3 8.02c0-2.076.005-3.813.01-3.858.028-.237.064-.367.152-.54.058-.115.093-.162.178-.247.153-.152.314-.25.52-.323.136-.045.193-.057.328-.068.057-.006.106-.01.11-.012.004-.005.182.004.252.013zm3.96-1.854c-.003.02-.004 3.12-.004 6.89v6.87l1.005.01h1.004V8.76h2.475v6.134h2l.005-.03c.005-.024.003-13.7 0-13.74-.002-.01-.335-.012-.972-.01-.533 0-.984.002-1 .002h-.033v5.9h-2.475v-2.95c0-2.35-.004-2.95-.017-2.95-.01 0-.46 0-1-.003-.864-.002-.984 0-.988.018z"/></svg>