<svg xmlns="http://www.w3.org/2000/svg" style="isolation:isolate" viewBox="0 0 16 16" width="16" height="16"><path d="M4.16 1c-.003.002-.057.01-.123.013l-.146.015c-.014.005-.05.01-.075.014-.027.003-.066.01-.087.014-.022.004-.052.01-.07.012-.017.003-.06.012-.094.022-.034.01-.078.02-.097.022-.064.012-.444.142-.528.182-.047.022-.085.037-.085.033 0-.003-.017.005-.037.02-.023.013-.063.034-.092.048-.262.116-.71.464-.95.735-.235.268-.467.673-.594 1.04-.032.093-.1.345-.115.417-.02.115-.05.336-.057.438-.014.173-.013 7.813 0 7.972.01.134.015.17.037.3.007.042.017.098.02.124.106.628.49 1.3 1.003 1.747.32.28.75.525 1.12.642.04.012.085.027.1.034.035.018.41.106.518.122l.146.022c.09.014.66.016.758.004.17-.022.205-.027.312-.048.945-.186 1.714-.69 2.19-1.435.21-.327.393-.795.444-1.13.004-.026.01-.06.014-.076.003-.015.01-.064.015-.11.006-.044.014-.096.018-.115.013-.06.016-7.978.003-8.09l-.02-.17c-.008-.06-.02-.126-.058-.322-.014-.07-.044-.177-.098-.34-.06-.178-.192-.455-.316-.652-.245-.39-.612-.75-1.02-.996-.126-.077-.348-.19-.455-.235-.246-.102-.593-.197-.835-.233-.03-.005-.07-.01-.093-.015-.095-.015-.2-.022-.416-.026H4.16zm.392 1.985c.2.025.333.066.514.162.35.185.563.486.62.878l.018.11c.014.07.01 7.726-.004 7.8-.02.118-.068.29-.103.368-.13.305-.397.537-.753.656-.103.033-.128.038-.278.062-.098.016-.422.01-.494-.01l-.09-.022c-.05-.008-.162-.048-.25-.086-.138-.062-.27-.155-.39-.277-.18-.182-.274-.387-.32-.713C3.006 11.826 3 10.93 3 8.02c0-2.076.005-3.813.01-3.858.028-.237.064-.367.152-.54.058-.115.093-.162.178-.247.153-.152.314-.25.52-.323.136-.045.193-.057.328-.068.057-.006.106-.01.11-.012.004-.005.182.004.252.013zm3.96-1.854c-.003.012-.004 3.113-.004 6.89v6.87l1.005.002h1.004V8.76h2.475v6.134h2l.005-.03c.005-.024.003-13.7 0-13.74-.002-.01-.335-.012-.972-.01-.533 0-.984.002-1 .002h-.033v5.9h-2.475v-2.95c0-2.35-.004-2.95-.017-2.95-.01 0-.46 0-1-.003-.864-.002-.984 0-.988.018z"/></svg>